<svg width="78" height="19" viewBox="0 0 78 19" fill="none" xmlns="http://www.w3.org/2000/svg">
<path d="M21.0965 19.1208H11.621V18.7994C12.477 18.7247 13.0726 18.5851 13.4089 18.3797C14.0045 18.016 14.3034 17.5118 14.3034 16.868C14.3034 16.4856 14.1686 15.9726 13.8992 15.3288L13.654 14.741L12.2693 11.4385H5.92495L5.17534 13.3699L4.81472 14.2378C4.38217 15.2639 4.1654 16.0709 4.1654 16.6586C4.1654 17.0036 4.24441 17.326 4.40345 17.6238C4.56249 17.9226 4.77623 18.1654 5.04568 18.3512C5.42049 18.6028 5.90166 18.7522 6.48817 18.7994V19.1208H0.0273438V18.7994C0.536876 18.7719 0.983604 18.65 1.36854 18.4357C1.75246 18.2214 2.12828 17.8765 2.49295 17.4007C2.8009 17.0184 3.10075 16.5259 3.39451 15.9244C3.68727 15.3229 4.07423 14.4196 4.5554 13.2165L9.83407 0.0201416H10.6556L16.929 14.7272C17.4001 15.8379 17.7749 16.6301 18.0534 17.1059C18.332 17.5816 18.6349 17.9413 18.9621 18.1831C19.1931 18.3512 19.4574 18.479 19.7553 18.5684C20.0531 18.6569 20.4998 18.7335 21.0965 18.7994V19.1208ZM12.0393 10.8645L9.01051 3.61558L6.1549 10.8645H12.0393Z" fill="#68231E"/>
<path d="M23.4922 19.1211V18.7849C24.4636 18.7849 25.2133 18.5185 25.742 17.9868C26.0398 17.688 26.2445 17.3086 26.3549 16.8466C26.4653 16.3847 26.521 15.678 26.521 14.7265V4.41297C26.521 3.42418 26.4613 2.69388 26.3407 2.22307C26.2202 1.75226 25.9963 1.36697 25.6701 1.06817C25.4007 0.825391 25.1008 0.648472 24.7685 0.536422C24.4373 0.424371 24.0118 0.359501 23.4922 0.340826V0.0184326H32.7083V0.340826C32.1796 0.368347 31.747 0.439116 31.4107 0.550184C31.0744 0.662234 30.7766 0.839153 30.5162 1.08193C30.189 1.38958 29.9682 1.77684 29.8527 2.24372C29.7372 2.71059 29.6795 3.43302 29.6795 4.41297V12.4875C29.6795 13.7289 29.7129 14.6518 29.7808 15.2583C29.8477 15.8647 29.9773 16.3591 30.1698 16.7415C30.5061 17.4128 31.0065 17.9052 31.67 18.2178C32.3335 18.5303 33.2128 18.6866 34.3089 18.6866C35.4525 18.6866 36.4169 18.5402 37.2009 18.2463C37.984 17.9524 38.6262 17.4973 39.1266 16.882C39.4629 16.4623 39.7395 15.9866 39.9563 15.4548C40.173 14.9231 40.3716 14.2233 40.5549 13.3554L40.9014 13.3829L40.714 19.1201H23.4922V19.1211Z" fill="#68231E"/>
<path d="M39.2305 0.0194092H48.7485V0.341803C48.0273 0.406674 47.5086 0.514789 47.1915 0.663206C46.8937 0.802778 46.6526 1.02 46.4703 1.31388C46.288 1.60777 46.1968 1.92721 46.1968 2.27221C46.1968 2.51499 46.2201 2.72926 46.2687 2.91601C46.3163 3.10276 46.4612 3.5087 46.7012 4.13382L50.97 15.3988L55.109 5.51971C55.6854 4.12989 55.9741 3.1175 55.9741 2.48354C55.9741 2.12871 55.9164 1.79747 55.8009 1.48983C55.6854 1.18218 55.5315 0.944317 55.339 0.776242C55.1465 0.617995 54.9348 0.505947 54.7049 0.440092C54.4739 0.375221 54.1761 0.341803 53.8104 0.341803V0.0194092H60.2287V0.341803C59.6999 0.387999 59.241 0.514789 58.851 0.719232C58.462 0.924658 58.0893 1.23722 57.7337 1.65691C57.4936 1.95572 57.2414 2.36362 56.977 2.88161C56.7126 3.3996 56.35 4.19967 55.888 5.28184L49.9752 19.122H49.3695L43.6289 4.82086C42.8793 2.94549 42.2775 1.75619 41.8257 1.25294C41.537 0.935469 41.1845 0.704489 40.7662 0.560003C40.3478 0.415517 39.8362 0.34278 39.2305 0.34278V0.0194092Z" fill="#68231E"/>
<path d="M77.9217 19.121H68.4462V18.7996C69.3022 18.7249 69.8978 18.5854 70.2341 18.3799C70.8308 18.0163 71.1286 17.512 71.1286 16.8682C71.1286 16.4859 70.9939 15.9728 70.7244 15.329L70.4793 14.7413L69.0945 11.4387H62.7492L61.9996 13.3701L61.6389 14.238C61.2064 15.2641 60.9896 16.0711 60.9896 16.6589C60.9896 17.0039 61.0686 17.3263 61.2277 17.6241C61.3867 17.9229 61.6004 18.1657 61.8699 18.3514C62.2447 18.6031 62.7259 18.7525 63.3124 18.7996V19.121H56.8516V18.7996C57.3611 18.7721 57.8078 18.6502 58.1928 18.436C58.5767 18.2217 58.9525 17.8767 59.3172 17.401C59.6251 17.0186 59.925 16.5262 60.2187 15.9247C60.5115 15.3231 60.8995 14.4198 61.3796 13.2168L66.6583 0.0203857H67.4798L73.7533 14.7275C74.2243 15.8382 74.5991 16.6304 74.8777 17.1061C75.1562 17.5818 75.4591 17.9416 75.7863 18.1834C76.0173 18.3514 76.2817 18.4792 76.5795 18.5687C76.8773 18.6571 77.325 18.7338 77.9207 18.7996V19.121H77.9217ZM68.8646 10.8647L65.8357 3.61583L62.9801 10.8647H68.8646Z" fill="#68231E"/>
</svg>
