<svg width="134" height="47" viewBox="0 0 134 47" fill="none" xmlns="http://www.w3.org/2000/svg">
<g clip-path="url(#clip0_232_437)">
<path d="M36.2445 33.9962H19.9661V33.4248C21.4366 33.292 22.4599 33.0438 23.0377 32.6786C24.0609 32.032 24.5743 31.1355 24.5743 29.9908C24.5743 29.311 24.3429 28.3988 23.8799 27.2542L23.4588 26.2091L21.0799 20.3373H10.1806L8.89283 23.7713L8.27329 25.3144C7.5302 27.1388 7.15779 28.5736 7.15779 29.6186C7.15779 30.232 7.29353 30.8052 7.56675 31.3347C7.83997 31.866 8.20717 32.2976 8.67008 32.6279C9.31397 33.0753 10.1406 33.3409 11.1482 33.4248V33.9962H0.0488281V33.4248C0.924179 33.3758 1.69163 33.1591 2.35293 32.7782C3.01249 32.3972 3.65813 31.7838 4.28462 30.938C4.81366 30.2582 5.32878 29.3827 5.83345 28.3132C6.33639 27.2437 7.00116 25.6377 7.82779 23.4987L16.8963 0.0360107H18.3076L29.0851 26.1847C29.8943 28.1594 30.5382 29.5679 31.0168 30.4137C31.4953 31.2596 32.0157 31.8992 32.5778 32.3291C32.9745 32.6279 33.4287 32.8551 33.9404 33.0141C34.452 33.1714 35.2195 33.3077 36.2445 33.4248V33.9962ZM20.6848 19.3168L15.4815 6.42857L10.5757 19.3168H20.6848Z" fill="#68231E"/>
<path d="M40.3594 33.9964V33.3988C42.0283 33.3988 43.3161 32.9252 44.2245 31.9797C44.7361 31.4485 45.0877 30.7739 45.2773 29.9526C45.467 29.1312 45.5627 27.8747 45.5627 26.1831V7.84603C45.5627 6.08799 45.4601 4.78956 45.253 3.95248C45.0459 3.1154 44.6613 2.43036 44.1009 1.8991C43.638 1.46746 43.1229 1.1529 42.5521 0.953679C41.983 0.754458 41.2521 0.639121 40.3594 0.605918V0.0327148H56.1923V0.605918C55.2838 0.654849 54.5407 0.780674 53.963 0.978148C53.3852 1.17737 52.8736 1.49192 52.4263 1.92357C51.8642 2.47055 51.4848 3.15909 51.2865 3.98918C51.0881 4.81927 50.9889 6.10372 50.9889 7.84603V22.2022C50.9889 24.4093 51.0463 26.0503 51.1629 27.1285C51.2778 28.2068 51.5005 29.0858 51.8312 29.7656C52.4089 30.9592 53.2686 31.8347 54.4085 32.3904C55.5484 32.9462 57.0589 33.224 58.9419 33.224C60.9066 33.224 62.5633 32.9636 63.9103 32.4411C65.2555 31.9186 66.3589 31.1095 67.2185 30.0155C67.7963 29.2693 68.2714 28.4235 68.6438 27.478C69.0162 26.5326 69.3573 25.2884 69.6723 23.7453L70.2675 23.7942L69.9455 33.9947H40.3594V33.9964Z" fill="#68231E"/>
<path d="M67.3984 0.0344238H83.7499V0.607627C82.5109 0.722965 81.6198 0.915189 81.0751 1.17907C80.5635 1.42722 80.1493 1.81343 79.8361 2.33595C79.5228 2.85847 79.3662 3.42642 79.3662 4.03981C79.3662 4.47146 79.4062 4.85243 79.4898 5.18446C79.5716 5.5165 79.8204 6.23824 80.2329 7.34968L87.5663 27.3784L94.677 9.81374C95.6672 7.3427 96.1632 5.54272 96.1632 4.41554C96.1632 3.78468 96.064 3.19575 95.8656 2.64877C95.6672 2.10178 95.4027 1.67887 95.0721 1.38004C94.7414 1.09869 94.3777 0.899468 93.9826 0.782382C93.5859 0.667043 93.0742 0.607627 92.446 0.607627V0.0344238H103.472V0.607627C102.564 0.689762 101.776 0.91519 101.106 1.27868C100.437 1.64392 99.7969 2.19964 99.186 2.94584C98.7736 3.4771 98.3403 4.20234 97.886 5.1233C97.4318 6.04426 96.8088 7.46677 96.0153 9.39082L85.8574 33.9981H84.8167L74.9547 8.57122C73.6669 5.23689 72.6331 3.12235 71.857 2.2276C71.361 1.66314 70.7554 1.25247 70.0367 0.995579C69.318 0.738688 68.4391 0.609365 67.3984 0.609365V0.0344238Z" fill="#68231E"/>
<path d="M133.865 33.9965H117.587V33.425C119.058 33.2922 120.081 33.044 120.659 32.6788C121.684 32.0322 122.195 31.1357 122.195 29.9911C122.195 29.3113 121.964 28.3991 121.501 27.2544L121.08 26.2094L118.701 20.3376H107.8L106.512 23.7715L105.892 25.3146C105.149 27.1391 104.777 28.5738 104.777 29.6188C104.777 30.2322 104.913 30.8054 105.186 31.3349C105.459 31.8662 105.826 32.2978 106.289 32.6281C106.933 33.0755 107.76 33.3411 108.767 33.425V33.9965H97.668V33.425C98.5433 33.3761 99.3108 33.1594 99.9721 32.7784C100.632 32.3975 101.277 31.7841 101.904 30.9383C102.433 30.2585 102.948 29.3829 103.453 28.3134C103.956 27.2439 104.622 25.6379 105.447 23.4989L114.515 0.0362549H115.927L126.704 26.1849C127.513 28.1596 128.157 29.5682 128.636 30.414C129.114 31.2598 129.635 31.8994 130.197 32.3293C130.594 32.6281 131.048 32.8553 131.56 33.0143C132.071 33.1716 132.84 33.3079 133.864 33.425V33.9965H133.865ZM118.306 19.317L113.102 6.42881L108.197 19.317H118.306Z" fill="#68231E"/>
<path d="M14.7436 43.6306H14.185V45.5477H13.4141V41.0477H14.185V42.9526H14.6862L16.1933 41.0477H17.1208L15.3475 43.2095L17.2687 45.5459H16.2959L14.7436 43.6306Z" fill="#B29F78"/>
<path d="M21.1184 45.5477C21.0749 45.4586 21.0384 45.3013 21.0106 45.0742C20.6538 45.4464 20.2292 45.6316 19.7349 45.6316C19.2929 45.6316 18.9309 45.5058 18.6473 45.2559C18.3636 45.0043 18.2227 44.6862 18.2227 44.3017C18.2227 43.8334 18.4002 43.4699 18.7552 43.2095C19.1102 42.9509 19.6079 42.8216 20.2518 42.8216H20.9966V42.4686C20.9966 42.1994 20.9166 41.9862 20.7565 41.8255C20.5964 41.6664 20.3597 41.586 20.0482 41.586C19.775 41.586 19.5453 41.656 19.3608 41.794C19.1763 41.9321 19.0841 42.0998 19.0841 42.2973H18.3132C18.3132 42.0719 18.3932 41.8552 18.5516 41.6472C18.7099 41.4375 18.9257 41.2715 19.1972 41.1509C19.4687 41.0286 19.768 40.9674 20.0934 40.9674C20.6103 40.9674 21.014 41.0967 21.3064 41.3554C21.5988 41.614 21.7502 41.9723 21.7623 42.4266V44.4975C21.7623 44.9099 21.8146 45.2384 21.919 45.4831V45.5495H21.1184V45.5477ZM19.8463 44.9606C20.0865 44.9606 20.3144 44.8977 20.5302 44.7736C20.746 44.6495 20.9009 44.487 20.9984 44.2878V43.3651H20.398C19.46 43.3651 18.9901 43.6412 18.9901 44.1934C18.9901 44.4346 19.0702 44.6233 19.2303 44.7596C19.3904 44.8924 19.5957 44.9606 19.8463 44.9606Z" fill="#B29F78"/>
<path d="M26.7725 45.5478H26.0016V43.9173C25.664 44.0064 25.3194 44.0501 24.9661 44.0501C24.4058 44.0501 23.9794 43.9068 23.6853 43.6185C23.3912 43.3301 23.2415 42.9194 23.2363 42.3882V41.0443H24.002V42.4126C24.016 43.0837 24.3379 43.4192 24.9661 43.4192C25.3194 43.4192 25.664 43.3756 26.0016 43.2864V41.0496H26.7725V45.5478Z" fill="#B29F78"/>
<path d="M30.2801 45.6298C29.6727 45.6298 29.1785 45.4289 28.7974 45.0287C28.4163 44.6285 28.2266 44.092 28.2266 43.4209V43.2794C28.2266 42.8337 28.3118 42.4353 28.4806 42.084C28.6512 41.7328 28.8879 41.4584 29.1924 41.2609C29.4969 41.0635 29.8276 40.9639 30.1844 40.9639C30.7673 40.9639 31.2198 41.1561 31.5435 41.5423C31.8672 41.9285 32.0273 42.479 32.0273 43.1972V43.517H28.9923C29.0027 43.9609 29.1332 44.3192 29.3786 44.5918C29.6257 44.8644 29.939 45.0007 30.3201 45.0007C30.5898 45.0007 30.8195 44.9448 31.0075 44.8347C31.1954 44.7246 31.359 44.5761 31.5 44.3943L31.9681 44.7595C31.594 45.3397 31.0319 45.6298 30.2801 45.6298ZM30.1844 41.5965C29.8746 41.5965 29.6153 41.7101 29.4065 41.9355C29.1976 42.1609 29.0671 42.479 29.0166 42.8862H31.2616V42.8285C31.239 42.4371 31.1345 42.1347 30.9466 41.9198C30.7586 41.7031 30.5046 41.5965 30.1844 41.5965Z" fill="#B29F78"/>
<path d="M35.1367 45.0025C35.4099 45.0025 35.6483 44.9186 35.8537 44.7526C36.0573 44.5866 36.1704 44.3786 36.193 44.1287H36.917C36.9031 44.3874 36.8143 44.632 36.6525 44.8644C36.4889 45.0969 36.2714 45.2821 35.9999 45.4219C35.7284 45.56 35.4395 45.6299 35.1367 45.6299C34.5259 45.6299 34.0421 45.4254 33.6818 45.0165C33.3216 44.6076 33.1406 44.0483 33.1406 43.3388V43.2095C33.1406 42.7709 33.2207 42.3812 33.3808 42.0404C33.5409 41.6996 33.7706 41.434 34.0699 41.2453C34.3692 41.0565 34.7243 40.9622 35.1315 40.9622C35.6344 40.9622 36.0521 41.1124 36.3845 41.4148C36.7169 41.7171 36.8944 42.1086 36.917 42.5909H36.193C36.1704 42.299 36.0608 42.0614 35.8641 41.8744C35.6675 41.6874 35.4238 41.593 35.1332 41.593C34.7434 41.593 34.4423 41.7346 34.2283 42.0142C34.0142 42.2955 33.9081 42.7027 33.9081 43.234V43.379C33.9081 43.8981 34.0142 44.2965 34.2266 44.5761C34.4389 44.8627 34.7417 45.0025 35.1367 45.0025Z" fill="#B29F78"/>
<path d="M41.5304 41.6716H40.0268V45.5477H39.2611V41.6716H37.7871V41.0477H41.5304V41.6716Z" fill="#B29F78"/>
<path d="M42.7695 45.5477V41.0477H44.5168C45.1137 41.0477 45.5714 41.1526 45.8898 41.3623C46.2083 41.572 46.3684 41.8778 46.3684 42.2833C46.3684 42.4912 46.3057 42.6782 46.1822 42.846C46.0586 43.0137 45.8742 43.1413 45.6323 43.2304C45.902 43.2933 46.1195 43.4192 46.2849 43.6044C46.4484 43.7896 46.532 44.0116 46.532 44.2702C46.532 44.6826 46.3806 44.9989 46.0778 45.2191C45.775 45.4376 45.3486 45.5477 44.7969 45.5477H42.7695ZM43.537 42.9561H44.5272C45.2442 42.9561 45.6044 42.7446 45.6044 42.3234C45.6044 41.9023 45.2651 41.6838 44.5864 41.6716H43.5387V42.9561H43.537ZM43.537 43.5712V44.9273H44.8039C45.1241 44.9273 45.3643 44.8679 45.5226 44.749C45.681 44.6302 45.761 44.4624 45.761 44.2458C45.761 43.7966 45.4321 43.5729 44.7761 43.5729H43.537V43.5712Z" fill="#B29F78"/>
<path d="M47.7676 43.2549C47.7676 42.8145 47.8546 42.4178 48.0269 42.0648C48.1992 41.7136 48.4393 41.4409 48.7473 41.2505C49.0554 41.06 49.4069 40.9639 49.8019 40.9639C50.4128 40.9639 50.9053 41.1753 51.2829 41.6C51.6605 42.0246 51.8485 42.5873 51.8485 43.2916V43.3458C51.8485 43.7844 51.765 44.1776 51.5979 44.5254C51.4308 44.8731 51.1924 45.144 50.8809 45.338C50.5694 45.532 50.2144 45.6298 49.8106 45.6298C49.2033 45.6298 48.7108 45.4184 48.3349 44.9937C47.9573 44.5691 47.7693 44.0081 47.7693 43.3091V43.2549H47.7676ZM48.5385 43.3475C48.5385 43.8473 48.6534 44.2475 48.8848 44.5498C49.1145 44.8522 49.4243 45.0025 49.8106 45.0025C50.2005 45.0025 50.5085 44.8487 50.7382 44.5429C50.9679 44.237 51.0828 43.8071 51.0828 43.2567C51.0828 42.7638 50.9662 42.3636 50.733 42.0578C50.4998 41.752 50.19 41.5982 49.8037 41.5982C49.426 41.5982 49.1198 41.7503 48.8883 42.0508C48.6534 42.3514 48.5385 42.7848 48.5385 43.3475Z" fill="#B29F78"/>
<path d="M55.7168 44.9186L55.9813 44.59C56.2789 44.2021 56.4494 43.6201 56.4912 42.8442L56.5608 41.0477H59.4479V44.9186H60.0239V46.8688H59.2582V45.5459H56.1309V46.8688H55.3652L55.3687 44.9186H55.7168ZM56.6234 44.9186H58.6822V41.759H57.3039L57.2586 42.832C57.2099 43.7267 56.9993 44.4223 56.6234 44.9186Z" fill="#B29F78"/>
<path d="M61.0938 43.2549C61.0938 42.8145 61.1808 42.4178 61.353 42.0648C61.5253 41.7136 61.7655 41.4409 62.0735 41.2505C62.3815 41.06 62.7331 40.9639 63.1281 40.9639C63.7389 40.9639 64.2314 41.1753 64.6091 41.6C64.9867 42.0246 65.1747 42.5873 65.1747 43.2916V43.3458C65.1747 43.7844 65.0911 44.1776 64.9241 44.5254C64.757 44.8731 64.5186 45.144 64.2071 45.338C63.8956 45.532 63.5406 45.6298 63.1368 45.6298C62.5295 45.6298 62.037 45.4184 61.6611 44.9937C61.2834 44.5691 61.0955 44.0081 61.0955 43.3091V43.2549H61.0938ZM61.8629 43.3475C61.8629 43.8473 61.9778 44.2475 62.2093 44.5498C62.439 44.8522 62.7487 45.0025 63.1351 45.0025C63.5249 45.0025 63.8329 44.8487 64.0626 44.5429C64.2923 44.237 64.4072 43.8071 64.4072 43.2567C64.4072 42.7638 64.2906 42.3636 64.0574 42.0578C63.8242 41.752 63.5145 41.5982 63.1281 41.5982C62.7505 41.5982 62.4442 41.7503 62.2127 42.0508C61.9795 42.3514 61.8629 42.7848 61.8629 43.3475Z" fill="#B29F78"/>
<path d="M68.3535 45.0025C68.6267 45.0025 68.8651 44.9186 69.0705 44.7526C69.2741 44.5866 69.3872 44.3786 69.4098 44.1287H70.1338C70.1199 44.3874 70.0311 44.632 69.8693 44.8644C69.7057 45.0969 69.4881 45.2821 69.2167 45.4219C68.9452 45.5617 68.6563 45.6299 68.3535 45.6299C67.7427 45.6299 67.2589 45.4254 66.8986 45.0165C66.5384 44.6076 66.3574 44.0483 66.3574 43.3388V43.2095C66.3574 42.7709 66.4375 42.3812 66.5976 42.0404C66.7577 41.6996 66.9874 41.434 67.2867 41.2453C67.586 41.0565 67.9411 40.9622 68.3483 40.9622C68.8512 40.9622 69.2689 41.1124 69.6013 41.4148C69.9337 41.7171 70.1112 42.1086 70.1338 42.5909H69.4098C69.3872 42.299 69.2776 42.0614 69.0809 41.8744C68.8843 41.6874 68.6406 41.593 68.35 41.593C67.9602 41.593 67.6591 41.7346 67.4451 42.0142C67.231 42.2955 67.1249 42.7027 67.1249 43.234V43.379C67.1249 43.8981 67.231 44.2965 67.4433 44.5761C67.6557 44.8627 67.9585 45.0025 68.3535 45.0025Z" fill="#B29F78"/>
<path d="M74.7492 41.6716H73.2456V45.5477H72.4799V41.6716H71.0059V41.0477H74.7492V41.6716Z" fill="#B29F78"/>
<path d="M75.541 43.2549C75.541 42.8145 75.628 42.4178 75.8003 42.0648C75.9726 41.7136 76.2128 41.4409 76.5208 41.2505C76.8288 41.06 77.1803 40.9639 77.5754 40.9639C78.1862 40.9639 78.6787 41.1753 79.0563 41.6C79.434 42.0246 79.6219 42.5873 79.6219 43.2916V43.3458C79.6219 43.7844 79.5384 44.1776 79.3713 44.5254C79.2043 44.8731 78.9658 45.144 78.6543 45.338C78.3428 45.532 77.9878 45.6298 77.5841 45.6298C76.9767 45.6298 76.4842 45.4184 76.1083 44.9937C75.7307 44.5691 75.5428 44.0081 75.5428 43.3091V43.2549H75.541ZM76.3119 43.3475C76.3119 43.8473 76.4268 44.2475 76.6583 44.5498C76.888 44.8522 77.1977 45.0025 77.5841 45.0025C77.9739 45.0025 78.2819 44.8487 78.5116 44.5429C78.7414 44.237 78.8562 43.8071 78.8562 43.2567C78.8562 42.7638 78.7396 42.3636 78.5064 42.0578C78.2732 41.752 77.9635 41.5982 77.5771 41.5982C77.1995 41.5982 76.8932 41.7503 76.6617 42.0508C76.4285 42.3514 76.3119 42.7848 76.3119 43.3475Z" fill="#B29F78"/>
<path d="M83.9056 41.0477H84.6713V45.5477H83.9056V42.2675L81.8399 45.5477H81.0742V41.0477H81.8399V44.3331L83.9056 41.0477ZM84.1127 39.405C84.1127 39.7423 83.9996 40.0114 83.7716 40.2176C83.5436 40.4221 83.2443 40.5252 82.8754 40.5252C82.5047 40.5252 82.2054 40.4221 81.9774 40.2159C81.7477 40.0097 81.6328 39.7406 81.6328 39.4068H82.2576C82.2576 39.6008 82.3098 39.7528 82.4142 39.8629C82.5186 39.973 82.6718 40.0272 82.8737 40.0272C83.0668 40.0272 83.2182 39.973 83.3261 39.8646C83.4358 39.7563 83.4897 39.6043 83.4897 39.4068H84.1127V39.405Z" fill="#B29F78"/>
<path d="M89.986 45.5477H89.2203V43.6271H87.1616V45.5477H86.3906V41.0477H87.1616V42.998H89.2203V41.0477H89.986V45.5477Z" fill="#B29F78"/>
<path d="M91.4375 43.2549C91.4375 42.8145 91.5245 42.4178 91.6968 42.0648C91.8691 41.7136 92.1092 41.4409 92.4173 41.2505C92.7253 41.06 93.0768 40.9639 93.4719 40.9639C94.0827 40.9639 94.5752 41.1753 94.9528 41.6C95.3305 42.0246 95.5184 42.5873 95.5184 43.2916V43.3458C95.5184 43.7844 95.4349 44.1776 95.2678 44.5254C95.1007 44.8731 94.8623 45.144 94.5508 45.338C94.2393 45.532 93.8843 45.6298 93.4806 45.6298C92.8732 45.6298 92.3807 45.4184 92.0048 44.9937C91.6272 44.5691 91.4392 44.0081 91.4392 43.3091V43.2549H91.4375ZM92.2067 43.3475C92.2067 43.8473 92.3216 44.2475 92.553 44.5498C92.7827 44.8522 93.0925 45.0025 93.4788 45.0025C93.8686 45.0025 94.1767 44.8487 94.4064 44.5429C94.6361 44.237 94.751 43.8071 94.751 43.2567C94.751 42.7638 94.6344 42.3636 94.4012 42.0578C94.168 41.752 93.8582 41.5982 93.4719 41.5982C93.0942 41.5982 92.7879 41.7503 92.5565 42.0508C92.3233 42.3514 92.2067 42.7848 92.2067 43.3475Z" fill="#B29F78"/>
<path d="M98.7605 45.6298C98.1532 45.6298 97.6589 45.4289 97.2778 45.0287C96.8967 44.6285 96.707 44.092 96.707 43.4209V43.2794C96.707 42.8337 96.7923 42.4353 96.9611 42.084C97.1316 41.7328 97.3683 41.4584 97.6729 41.2609C97.9774 41.0635 98.3081 40.9639 98.6648 40.9639C99.2478 40.9639 99.7003 41.1561 100.024 41.5423C100.348 41.9285 100.508 42.479 100.508 43.1972V43.517H97.4727C97.4832 43.9609 97.6137 44.3192 97.8591 44.5918C98.1045 44.8644 98.4194 45.0007 98.8006 45.0007C99.0703 45.0007 99.3 44.9448 99.488 44.8347C99.6759 44.7246 99.8395 44.5761 99.9805 44.3943L100.449 44.7595C100.074 45.3397 99.5106 45.6298 98.7605 45.6298ZM98.6648 41.5965C98.3551 41.5965 98.0958 41.7101 97.8869 41.9355C97.6781 42.1609 97.5476 42.479 97.4971 42.8862H99.742V42.8285C99.7194 42.4371 99.615 42.1347 99.4271 41.9198C99.2391 41.7031 98.985 41.5965 98.6648 41.5965Z" fill="#B29F78"/>
<path d="M104.41 45.5477V41.0477H106.157C106.754 41.0477 107.212 41.1526 107.53 41.3623C107.849 41.572 108.009 41.8778 108.009 42.2833C108.009 42.4912 107.946 42.6782 107.823 42.846C107.699 43.0137 107.515 43.1413 107.273 43.2304C107.543 43.2933 107.76 43.4192 107.925 43.6044C108.089 43.7896 108.173 44.0116 108.173 44.2702C108.173 44.6826 108.021 44.9989 107.718 45.2191C107.416 45.4376 106.989 45.5477 106.438 45.5477H104.41ZM105.176 42.9561H106.166C106.883 42.9561 107.243 42.7446 107.243 42.3234C107.243 41.9023 106.904 41.6838 106.225 41.6716H105.178V42.9561H105.176ZM105.176 43.5712V44.9273H106.443C106.763 44.9273 107.003 44.8679 107.162 44.749C107.32 44.6302 107.4 44.4624 107.4 44.2458C107.4 43.7966 107.071 43.5729 106.415 43.5729H105.176V43.5712Z" fill="#B29F78"/>
<path d="M112.376 45.5477C112.333 45.4586 112.296 45.3013 112.268 45.0742C111.912 45.4464 111.487 45.6316 110.993 45.6316C110.551 45.6316 110.189 45.5058 109.905 45.2559C109.621 45.0043 109.48 44.6862 109.48 44.3017C109.48 43.8334 109.658 43.4699 110.013 43.2095C110.368 42.9509 110.866 42.8216 111.51 42.8216H112.254V42.4686C112.254 42.1994 112.174 41.9862 112.014 41.8255C111.854 41.6664 111.618 41.586 111.306 41.586C111.033 41.586 110.803 41.656 110.619 41.794C110.434 41.9321 110.342 42.0998 110.342 42.2973H109.571C109.571 42.0719 109.651 41.8552 109.809 41.6472C109.968 41.4375 110.184 41.2715 110.455 41.1509C110.727 41.0286 111.026 40.9674 111.351 40.9674C111.868 40.9674 112.272 41.0967 112.564 41.3554C112.857 41.614 113.008 41.9723 113.02 42.4266V44.4975C113.02 44.9099 113.072 45.2384 113.177 45.4831V45.5495H112.376V45.5477ZM111.104 44.9606C111.344 44.9606 111.572 44.8977 111.788 44.7736C112.004 44.6495 112.159 44.487 112.256 44.2878V43.3651H111.656C110.718 43.3651 110.248 43.6412 110.248 44.1934C110.248 44.4346 110.328 44.6233 110.488 44.7596C110.648 44.8924 110.854 44.9606 111.104 44.9606Z" fill="#B29F78"/>
<path d="M116.445 45.0025C116.719 45.0025 116.957 44.9186 117.162 44.7526C117.366 44.5866 117.479 44.3786 117.502 44.1287H118.226C118.212 44.3874 118.123 44.632 117.961 44.8644C117.797 45.0969 117.58 45.2821 117.308 45.4219C117.037 45.5617 116.748 45.6299 116.445 45.6299C115.834 45.6299 115.351 45.4254 114.99 45.0165C114.63 44.6076 114.449 44.0483 114.449 43.3388V43.2095C114.449 42.7709 114.529 42.3812 114.689 42.0404C114.849 41.6996 115.079 41.434 115.379 41.2453C115.678 41.0565 116.033 40.9622 116.44 40.9622C116.943 40.9622 117.361 41.1124 117.693 41.4148C118.025 41.7171 118.203 42.1086 118.226 42.5909H117.502C117.479 42.299 117.369 42.0614 117.173 41.8744C116.976 41.6874 116.732 41.593 116.442 41.593C116.052 41.593 115.751 41.7346 115.537 42.0142C115.323 42.2955 115.217 42.7027 115.217 43.234V43.379C115.217 43.8981 115.323 44.2965 115.535 44.5761C115.746 44.8627 116.05 45.0025 116.445 45.0025Z" fill="#B29F78"/>
<path d="M119.592 45.1563C119.592 45.0304 119.63 44.9256 119.705 44.84C119.781 44.7543 119.893 44.7124 120.043 44.7124C120.192 44.7124 120.305 44.7543 120.382 44.84C120.458 44.9256 120.498 45.0304 120.498 45.1563C120.498 45.2821 120.46 45.3869 120.382 45.4691C120.305 45.5512 120.192 45.5931 120.043 45.5931C119.893 45.5931 119.781 45.5512 119.705 45.4691C119.63 45.3869 119.592 45.2821 119.592 45.1563ZM120.366 43.8316H119.675L119.621 39.4924H120.425L120.366 43.8316Z" fill="#B29F78"/>
</g>
<defs>
<clipPath id="clip0_232_437">
<rect width="134" height="47" fill="white"/>
</clipPath>
</defs>
</svg>
