<svg width="36" height="36" viewBox="0 0 36 36" fill="none" xmlns="http://www.w3.org/2000/svg">
<g clip-path="url(#clip0_222_1224)">
<path d="M18.0003 35.1427C27.468 35.1427 35.1431 27.4675 35.1431 17.9998C35.1431 8.53205 27.468 0.856934 18.0003 0.856934C8.53254 0.856934 0.857422 8.53205 0.857422 17.9998C0.857422 27.4675 8.53254 35.1427 18.0003 35.1427Z" fill="#039BE5"/>
<path d="M8.59288 17.5126L25.3161 11.2201C26.0923 10.9464 26.7702 11.4049 26.5187 12.5502L26.5201 12.5488L23.6727 25.6402C23.4617 26.5683 22.8965 26.794 22.1059 26.3567L17.7697 23.238L15.6782 25.2043C15.4469 25.43 15.2518 25.6204 14.8037 25.6204L15.1116 21.314L23.148 14.2288C23.4978 13.9283 23.07 13.7591 22.6089 14.0581L12.6776 20.1602L8.39631 18.8568C7.46692 18.5691 7.44668 17.9498 8.59288 17.5126Z" fill="white"/>
</g>
<defs>
<clipPath id="clip0_222_1224">
<rect width="36" height="36" fill="white"/>
</clipPath>
</defs>
</svg>
