<svg width="18" height="18" viewBox="0 0 18 18" fill="none" xmlns="http://www.w3.org/2000/svg">
<path d="M9.28125 0C8.97061 0 8.71875 0.251587 8.71875 0.5625V8.15625H0.5625C0.251862 8.15625 0 8.40784 0 8.71875C0 9.02966 0.251862 9.28125 0.5625 9.28125H8.71875V17.4375C8.71875 17.7484 8.97061 18 9.28125 18C9.59189 18 9.84375 17.7484 9.84375 17.4375V9.28125H17.4375C17.6349 9.28125 17.8086 9.17963 17.909 9.02582C17.9666 8.93738 18 8.83191 18 8.71875C18 8.40784 17.7481 8.15625 17.4375 8.15625H9.84375V0.5625C9.84375 0.251587 9.59189 0 9.28125 0Z" fill="#ffffff"/>
</svg>
