<svg width="44" height="36" viewBox="0 0 44 36" fill="none" xmlns="http://www.w3.org/2000/svg">
<g clip-path="url(#clip0_220_1094)">
<path d="M43.0937 7.69412C42.5863 5.85882 41.1003 4.41176 39.2156 3.91765C35.7725 3 21.9999 3 21.9999 3C21.9999 3 8.22731 3 4.78416 3.88235C2.93574 4.37647 1.4135 5.85882 0.906092 7.69412C0 11.0471 0 18 0 18C0 18 0 24.9882 0.906092 28.3059C1.4135 30.1412 2.89949 31.5882 4.78416 32.0824C8.26356 33 21.9999 33 21.9999 33C21.9999 33 35.7725 33 39.2156 32.1176C41.1003 31.6235 42.5863 30.1765 43.0937 28.3412C43.9998 24.9882 43.9998 18.0353 43.9998 18.0353C43.9998 18.0353 44.0361 11.0471 43.0937 7.69412Z" fill="#B29F78"/>
<path d="M18 25L29 18.5L18 12V25Z" fill="white"/>
</g>
<defs>
<clipPath id="clip0_220_1094">
<rect width="44" height="30" fill="white" transform="translate(0 3)"/>
</clipPath>
</defs>
</svg>
