<svg width="36" height="36" viewBox="0 0 36 36" fill="none" xmlns="http://www.w3.org/2000/svg">
<path d="M18.0046 0.857422H17.9965C9.01695 0.857422 1.71484 8.16156 1.71484 17.1431C1.71484 20.7056 2.86299 24.0076 4.81524 26.6886L2.78563 32.7387L9.04545 30.7376C11.6206 32.4436 14.6925 33.4288 18.0046 33.4288C26.9842 33.4288 34.2863 26.1227 34.2863 17.1431C34.2863 8.1636 26.9842 0.857422 18.0046 0.857422Z" fill="#4CAF50"/>
<path d="M27.0924 23.4163C26.7082 24.4755 25.1836 25.354 23.9675 25.6106C23.1356 25.7835 22.0488 25.9215 18.3906 24.4405C13.7113 22.5475 10.6979 17.9043 10.4631 17.6031C10.2382 17.3018 8.57227 15.1444 8.57227 12.9132C8.57227 10.682 9.73263 9.59555 10.2004 9.12909C10.5845 8.74621 11.2194 8.57129 11.8285 8.57129C12.0255 8.57129 12.2026 8.58101 12.3619 8.58878C12.8296 8.60822 13.0645 8.63543 13.373 9.35649C13.7571 10.2603 14.6926 12.4915 14.804 12.7208C14.9175 12.9501 15.0309 13.2611 14.8717 13.5624C14.7224 13.8733 14.591 14.0113 14.3562 14.2757C14.1213 14.54 13.8984 14.7421 13.6635 15.0259C13.4486 15.2727 13.2058 15.537 13.4765 15.9938C13.7471 16.4408 14.6826 17.9315 16.0599 19.1288C17.8373 20.6739 19.2783 21.1676 19.7938 21.3775C20.1779 21.5329 20.6357 21.496 20.9163 21.2045C21.2726 20.8294 21.7125 20.2074 22.1603 19.5952C22.4787 19.156 22.8808 19.1015 23.3027 19.257C23.7327 19.4028 26.0076 20.5009 26.4753 20.7283C26.9431 20.9577 27.2516 21.0665 27.365 21.2589C27.4765 21.4513 27.4765 22.3551 27.0924 23.4163Z" fill="#FAFAFA"/>
</svg>
