<svg width="60" height="60" viewBox="0 0 60 60" fill="none" xmlns="http://www.w3.org/2000/svg">
<g clip-path="url(#clip0_160_606)">
<path d="M47.7239 24.785L46.0918 14.7979C46.0733 14.684 46.0326 14.575 45.9719 14.4769C45.9112 14.3788 45.8318 14.2937 45.7381 14.2264C45.6445 14.159 45.5385 14.1108 45.4262 14.0845C45.3139 14.0582 45.1976 14.0543 45.0838 14.073C44.97 14.0916 44.861 14.1324 44.7629 14.1931C44.6649 14.2538 44.5798 14.3333 44.5125 14.4269C44.4452 14.5205 44.397 14.6265 44.3707 14.7387C44.3443 14.851 44.3404 14.9673 44.359 15.0811L45.815 23.9902C38.3869 22.5223 30.5972 22.1452 22.6578 22.8724C22.543 22.8829 22.4314 22.916 22.3293 22.9696C22.2272 23.0233 22.1368 23.0965 22.063 23.1851C21.9892 23.2737 21.9336 23.376 21.8994 23.4861C21.8652 23.5962 21.853 23.712 21.8635 23.8268C21.874 23.9416 21.907 24.0533 21.9606 24.1553C22.0143 24.2574 22.0875 24.3479 22.1761 24.4217C22.2648 24.4954 22.3671 24.551 22.4772 24.5853C22.5873 24.6195 22.703 24.6317 22.8179 24.6212C30.6536 23.9036 38.3364 24.2822 45.6532 25.7469C46.8912 25.9947 47.7898 27.0964 47.7898 28.3663V31.1368C47.7898 32.611 46.5905 33.8102 45.1164 33.8102H14.8825C13.4084 33.8102 12.2091 32.611 12.2091 31.1368V28.4211C12.2091 27.1325 13.1278 26.0268 14.3932 25.792C15.9597 25.5015 21.3115 24.8243 22.8907 24.6129C23.3712 24.5486 23.7088 24.1069 23.6445 23.6262C23.5802 23.1455 23.1383 22.8078 22.6578 22.8724C21.0494 23.0877 15.6683 23.7695 14.0728 24.0655L16.5417 8.88395C17.2136 4.75367 20.7381 1.75602 24.9225 1.75602H34.9654C39.1466 1.75602 42.6707 4.75098 43.3451 8.87751L44.359 15.0811C44.3776 15.1949 44.4184 15.304 44.4791 15.402C44.5398 15.5001 44.6192 15.5852 44.7128 15.6525C44.8065 15.7198 44.9124 15.768 45.0247 15.7944C45.1369 15.8207 45.2533 15.8247 45.3671 15.8061C45.4809 15.7875 45.5899 15.7466 45.6879 15.6859C45.7859 15.6252 45.871 15.5457 45.9383 15.4521C46.0056 15.3585 46.0538 15.2525 46.0801 15.1403C46.1065 15.028 46.1105 14.9117 46.0918 14.7979L45.0779 8.59432C44.685 6.19531 43.4528 4.01383 41.601 2.43888C39.7481 0.865207 37.3964 0.000862853 34.9654 0L24.9225 0C22.4925 0 20.1349 0.867007 18.2839 2.44134C16.433 4.01567 15.1987 6.20356 14.8086 8.60193L12.1528 24.9314C11.1089 25.7493 10.4531 27.0199 10.4531 28.421V31.1367C10.4531 33.5791 12.4401 35.5661 14.8825 35.5661H15.5462L12.1225 58.13C12.0513 58.5989 12.1878 59.0742 12.497 59.434C12.8062 59.7937 13.2557 60 13.7301 60H14.6021C15.3256 60 15.9513 59.5345 16.1595 58.8417L21.6119 40.6925L23.6138 39.4523H36.3848L38.3866 40.6925L40.3482 47.2218C40.4153 47.4448 40.5681 47.632 40.7732 47.7423C40.9783 47.8526 41.2187 47.877 41.4418 47.81C41.5522 47.7769 41.655 47.7223 41.7443 47.6494C41.8336 47.5765 41.9077 47.4867 41.9624 47.3852C42.017 47.2836 42.051 47.1723 42.0626 47.0576C42.0742 46.9429 42.0631 46.827 42.0299 46.7166L38.68 35.5661H42.6764L46.1174 58.244H45.493L42.0299 46.7165C41.9968 46.6061 41.9422 46.5033 41.8693 46.4139C41.7964 46.3246 41.7066 46.2505 41.605 46.1959C41.5035 46.1412 41.3921 46.1071 41.2774 46.0955C41.1627 46.0839 41.0468 46.0951 40.9364 46.1282C40.826 46.1614 40.7231 46.216 40.6338 46.2889C40.5445 46.3618 40.4704 46.4516 40.4158 46.5532C40.3612 46.6547 40.3271 46.766 40.3155 46.8808C40.3039 46.9955 40.315 47.1114 40.3482 47.2218L43.8391 58.8418C44.0471 59.5345 44.673 60.0001 45.3964 60.0001H46.2685C46.7428 60.0001 47.1924 59.7938 47.5016 59.4341C47.8107 59.0743 47.9474 58.599 47.8761 58.1301L44.4524 35.5662H45.1161C47.5585 35.5662 49.5455 33.5792 49.5455 31.1368V28.3663C49.5457 26.9164 48.8371 25.5989 47.7239 24.785ZM14.5056 58.244H13.8812L17.3222 35.5661H21.3186L14.5056 58.244ZM37.6243 38.1544L37.2914 37.9481C37.0256 37.7834 36.719 37.6961 36.4063 37.6962H23.5924C23.2795 37.6962 22.9736 37.7833 22.7071 37.9482L22.3744 38.1543L23.152 35.566H36.8465L37.6243 38.1544Z" fill="#68231E"/>
</g>
<defs>
<clipPath id="clip0_160_606">
<rect width="60" height="60" fill="white"/>
</clipPath>
</defs>
</svg>
