<svg width="60" height="60" viewBox="0 0 60 60" fill="none" xmlns="http://www.w3.org/2000/svg">
<path fill-rule="evenodd" clip-rule="evenodd" d="M3.09375 5.625C3.09375 2.48223 5.57598 0 8.71875 0H51.375C54.4363 0 56.9062 2.49464 56.9062 5.625V39.5625C56.9062 42.7053 54.7053 45.1808 51.5625 45.1808V57C51.5625 58.6428 50.2053 60 48.5625 60H42.0938C40.451 60 39.0938 58.6428 39.0938 57V45.1808L20.9062 45.1875V57C20.9062 58.6428 19.549 60 17.9062 60H11.4375C9.79473 60 8.4375 58.6428 8.4375 57V45.1875C5.42916 45.0445 3.09375 42.6109 3.09375 39.5625V5.625ZM4.96875 5.625C4.96875 3.51777 6.61152 1.875 8.71875 1.875H51.375C53.3762 1.875 55.0312 3.50536 55.0312 5.625V11.25H4.96875V5.625ZM4.96875 32.1094V13.125H55.0312V32.1094H4.96875ZM4.96875 33.9844H55.0312V39.5625C55.0312 41.6697 53.3885 43.3125 51.2812 43.3125H8.71875C6.61152 43.3125 4.96875 41.6697 4.96875 39.5625V33.9844ZM19.0312 45.1875V57C19.0312 57.6072 18.5135 58.125 17.9062 58.125H11.4375C10.8303 58.125 10.3125 57.6072 10.3125 57V45.1875H19.0312ZM49.6875 45.1808V57C49.6875 57.6072 49.1697 58.125 48.5625 58.125H42.0938C41.4865 58.125 40.9688 57.6072 40.9688 57V45.1808H49.6875Z" fill="#68231E"/>
</svg>
