<svg width="60" height="60" viewBox="0 0 60 60" fill="none" xmlns="http://www.w3.org/2000/svg">
<path d="M57.1875 15.9375H53.4375C53.1889 15.9375 52.9504 16.0363 52.7746 16.2121C52.5988 16.3879 52.5 16.6264 52.5 16.875V20.625H7.5V16.875C7.5 16.6264 7.40123 16.3879 7.22541 16.2121C7.0496 16.0363 6.81114 15.9375 6.5625 15.9375H2.8125C2.56386 15.9375 2.3254 16.0363 2.14959 16.2121C1.97377 16.3879 1.875 16.6264 1.875 16.875V55.3125C1.875 55.5611 1.97377 55.7996 2.14959 55.9754C2.3254 56.1512 2.56386 56.25 2.8125 56.25H6.5625C6.81114 56.25 7.0496 56.1512 7.22541 55.9754C7.40123 55.7996 7.5 55.5611 7.5 55.3125V51.5625H52.5V55.3125C52.5 55.5611 52.5988 55.7996 52.7746 55.9754C52.9504 56.1512 53.1889 56.25 53.4375 56.25H57.1875C57.4361 56.25 57.6746 56.1512 57.8504 55.9754C58.0262 55.7996 58.125 55.5611 58.125 55.3125V16.875C58.125 16.6264 58.0262 16.3879 57.8504 16.2121C57.6746 16.0363 57.4361 15.9375 57.1875 15.9375ZM5.625 54.375H3.75V17.8125H5.625V54.375ZM52.5 22.5V24.375H7.5V22.5H52.5ZM52.5 26.25V45.9375H7.5V26.25H52.5ZM7.5 49.6875V47.8125H52.5V49.6875H7.5ZM56.25 54.375H54.375V17.8125H56.25V54.375Z" fill="#68231E"/>
<path d="M20.8303 5.07189L20.0353 4.75407C19.893 4.69748 19.7391 4.67655 19.5869 4.69313C19.4346 4.7097 19.2888 4.76327 19.162 4.84917C19.0353 4.93506 18.9314 5.05067 18.8596 5.1859C18.7878 5.32114 18.7502 5.47189 18.75 5.62501V17.8125C18.75 18.0612 18.8488 18.2996 19.0246 18.4754C19.2004 18.6512 19.4389 18.75 19.6875 18.75H40.3125C40.5611 18.75 40.7996 18.6512 40.9754 18.4754C41.1512 18.2996 41.25 18.0612 41.25 17.8125V10.3125C41.2501 10.1004 41.1784 9.89458 41.0464 9.72856C40.9144 9.56254 40.7301 9.44617 40.5234 9.39845L29.0625 6.7547V5.62501C29.0626 5.46518 29.0218 5.30798 28.944 5.16834C28.8662 5.0287 28.7541 4.91127 28.6181 4.8272C28.4945 4.75257 28.3552 4.70764 28.2112 4.69595L28.0847 3.63751L26.2238 3.86064L26.3953 5.29595C24.5689 5.8572 22.6057 5.77816 20.8303 5.07189ZM39.375 16.875H20.625V15H39.375V16.875ZM29.7403 8.83501L29.3878 9.78564L31.1466 10.4363L31.5825 9.2597L32.6775 9.51189L32.2603 10.5525L34.0003 11.2509L34.5272 9.93845L35.5772 10.1803L35.1909 11.2125L36.9469 11.8697L37.4203 10.605L39.375 11.0578V13.125H20.625V6.9947C22.7559 7.72314 25.0631 7.72782 27.1875 7.02376V7.50001C27.1874 7.71209 27.2591 7.91795 27.3911 8.08397C27.5231 8.24999 27.7074 8.36636 27.9141 8.41407L29.7403 8.83501ZM21.0938 44.0625H29.0625C29.2653 44.0625 29.4627 43.9967 29.625 43.875L33.8756 40.6866C33.7931 41.1287 33.751 41.5774 33.75 42.0272V44.0625H35.625V42.0272C35.625 40.5675 36.1931 39.195 37.2253 38.1628L37.2103 38.1478C37.2989 38.0643 37.3701 37.964 37.4199 37.8529C37.4696 37.7417 37.4968 37.6218 37.5 37.5V29.0625C37.5 28.8139 37.4012 28.5754 37.2254 28.3996C37.0496 28.2238 36.8111 28.125 36.5625 28.125H30C29.7514 28.125 29.5129 28.2238 29.3371 28.3996C29.1613 28.5754 29.0625 28.8139 29.0625 29.0625V30.7097C29.0625 33.0244 28.1616 35.2003 26.5247 36.8372L26.0325 37.3294C25.3854 37.9799 24.6157 38.4957 23.768 38.8468C22.9203 39.198 22.0113 39.3775 21.0938 39.375C19.8019 39.375 18.75 40.4269 18.75 41.7188C18.75 43.0106 19.8019 44.0625 21.0938 44.0625ZM21.0938 41.25C22.2576 41.2532 23.4106 41.0254 24.4859 40.58C25.5612 40.1346 26.5374 39.4803 27.3581 38.655L27.8503 38.1628C28.8322 37.1864 29.6106 36.0249 30.1406 34.7455C30.6705 33.4662 30.9414 32.0944 30.9375 30.7097V30H35.625V37.0313L28.7503 42.1875H21.0938C20.9694 42.1875 20.8502 42.1381 20.7623 42.0502C20.6744 41.9623 20.625 41.8431 20.625 41.7188C20.625 41.5944 20.6744 41.4752 20.7623 41.3873C20.8502 41.2994 20.9694 41.25 21.0938 41.25Z" fill="#68231E"/>
</svg>
