<svg width="38" height="38" viewBox="0 0 38 38" fill="none" xmlns="http://www.w3.org/2000/svg">
<path d="M8.9165 16.3333C10.2498 19.1482 12.0091 21.6389 14.1943 23.8055C16.3794 25.9722 18.8795 27.7314 21.6944 29.0833L24.4166 23.6111L34.8332 25V34.7777C32.5739 34.8889 30.3424 34.7592 28.1387 34.3888C25.9535 34.0185 23.861 33.4167 21.8609 32.5832C18.1387 31.0648 14.8424 28.8888 11.9721 26.0555C9.1202 23.2037 6.93502 19.9074 5.4165 16.1666C4.58317 14.1666 3.98132 12.0648 3.61094 9.86107C3.24057 7.65737 3.11094 5.42588 3.22206 3.16663H12.9998L14.3887 13.6111L8.9165 16.3333Z" fill="currentColor"/>
</svg>
