<svg width="36" height="36" viewBox="0 0 36 36" fill="none" xmlns="http://www.w3.org/2000/svg">
<g clip-path="url(#clip0_220_1090)">
<path d="M18 36C27.9411 36 36 27.9411 36 18C36 8.05887 27.9411 0 18 0C8.05887 0 0 8.05887 0 18C0 27.9411 8.05887 36 18 36Z" fill="#B29F78"/>
<path fill-rule="evenodd" clip-rule="evenodd" d="M8.3749 17.8879C13.7436 15.6299 17.3236 14.1413 19.1148 13.4221C24.2292 11.3686 25.2919 11.0119 25.9846 11.0001C26.1369 10.9975 26.4776 11.034 26.6982 11.2068C26.8845 11.3528 26.9358 11.5499 26.9603 11.6883C26.9848 11.8266 27.0154 12.1418 26.9911 12.3881C26.714 15.1992 25.5147 22.021 24.9046 25.1694C24.6465 26.5017 24.1382 26.9484 23.6461 26.9921C22.5766 27.0871 21.7645 26.3098 20.7287 25.6543C19.1078 24.6287 18.1921 23.9902 16.6188 22.9893C14.8005 21.8327 15.9792 21.1969 17.0154 20.158C17.2866 19.8861 21.9987 15.7487 22.0899 15.3733C22.1013 15.3264 22.1119 15.1514 22.0042 15.059C21.8965 14.9666 21.7376 14.9982 21.6229 15.0234C21.4604 15.059 18.871 16.7111 13.8549 19.9798C13.1199 20.467 12.4542 20.7044 11.8577 20.6919C11.2001 20.6782 9.93528 20.333 8.99498 20.038C7.84166 19.6761 6.92503 19.4847 7.00485 18.8701C7.04642 18.55 7.5031 18.2226 8.3749 17.8879Z" fill="white"/>
</g>
<defs>
<clipPath id="clip0_220_1090">
<rect width="36" height="36" fill="white"/>
</clipPath>
</defs>
</svg>
