<svg width="36" height="36" viewBox="0 0 36 36" fill="none" xmlns="http://www.w3.org/2000/svg">
<path d="M0 17.28C0 9.13413 0 5.06119 2.5306 2.5306C5.06119 0 9.13413 0 17.28 0L18.72 0C26.8659 0 30.9388 0 33.4694 2.5306C36 5.06119 36 9.13413 36 17.28V18.72C36 26.8659 36 30.9388 33.4694 33.4694C30.9388 36 26.8659 36 18.72 36H17.28C9.13413 36 5.06119 36 2.5306 33.4694C0 30.9388 0 26.8659 0 18.72L0 17.28Z" fill="#B29F78"/>
<path d="M19.0718 26C10.8719 26 6.19488 20.3694 6 11H10.1074C10.2423 17.8769 13.2704 20.7898 15.6689 21.3904L15.6689 11H19.5366V16.9309C21.9051 16.6757 24.3932 13.973 25.2327 11L29.1004 11C28.4558 14.6637 25.7575 17.3663 23.8387 18.4775C25.7575 19.3784 28.8307 21.7357 30 26L25.7425 26C24.8281 23.1471 22.5497 20.9399 19.5366 20.6396V26H19.0718Z" fill="white"/>
</svg>
