<svg width="36" height="36" viewBox="0 0 36 36" fill="none" xmlns="http://www.w3.org/2000/svg">
<g clip-path="url(#clip0_222_1230)">
<ellipse cx="18" cy="16.3125" rx="13.5" ry="12.9375" fill="white"/>
<path d="M21.5995 0H14.3993C7.45102 0 1.79883 5.6522 1.79883 12.6004V18.0006C1.79883 22.8833 4.61143 27.307 8.99908 29.3905V35.4072C8.99908 35.9293 9.6516 36.1993 10.0206 35.8302L15.2498 30.6056H21.5995C28.5478 30.6056 34.2 24.9534 34.2 18.0006V12.6004C34.2 5.6522 28.5478 0 21.5995 0ZM26.3157 23.6173L24.4931 25.3993C22.576 27.2759 17.5719 25.1338 13.1617 20.6292C8.75157 16.12 6.8165 11.0708 8.63907 9.19427L10.4616 7.41221C11.1322 6.75519 12.2707 6.76869 13.0222 7.43921L15.6503 10.1258C16.5863 11.0843 16.1903 12.6909 14.9528 13.0599C14.0978 13.3344 13.5172 14.2749 13.7917 15.13C14.2463 17.128 16.7798 19.6256 18.6699 20.1207C19.5204 20.3187 20.4745 19.8551 20.7715 19.0046C21.163 17.7761 22.7786 17.4116 23.7191 18.3746L26.3427 21.0567C26.9997 21.7268 26.9907 22.8657 26.3157 23.6173ZM19.6374 8.5503C19.4574 8.5503 19.2774 8.5593 19.1019 8.5818C18.7734 8.6178 18.4764 8.37929 18.4404 8.05078C18.4044 7.72227 18.6429 7.42526 18.9714 7.38926C19.1919 7.36226 19.4169 7.35326 19.6374 7.35326C22.9451 7.35326 25.6362 10.0443 25.6362 13.352C25.6362 13.5725 25.6272 13.7975 25.6002 14.018C25.5642 14.342 25.2626 14.585 24.9386 14.549C24.6146 14.513 24.3716 14.2115 24.4076 13.8875C24.4256 13.712 24.4391 13.532 24.4391 13.352C24.4391 10.7059 22.2835 8.5503 19.6374 8.5503ZM23.2376 13.352C23.2376 13.6805 22.9631 13.9505 22.6346 13.9505C22.3105 13.9505 22.036 13.6805 22.036 13.352C22.036 12.0289 20.9605 10.9534 19.6374 10.9534C19.3044 10.9534 19.0344 10.6834 19.0344 10.3504C19.0344 10.0218 19.3044 9.75184 19.6374 9.75184C21.622 9.75184 23.2376 11.3674 23.2376 13.352ZM27.8142 15.2915C27.7377 15.6155 27.3912 15.8181 27.0717 15.7325C26.7612 15.647 26.5722 15.323 26.6442 15.0125C26.7747 14.4725 26.8377 13.9145 26.8377 13.352C26.8377 9.38283 23.6066 6.15171 19.6374 6.15171C19.4529 6.15171 19.2639 6.15621 19.0794 6.17421C18.7509 6.19672 18.4629 5.94921 18.4359 5.6207C18.4134 5.28768 18.6609 4.99967 18.9894 4.97717C19.2054 4.95917 19.4214 4.95017 19.6374 4.95017C24.2681 4.95017 28.0392 8.7213 28.0392 13.352C28.0392 14.0045 27.9627 14.657 27.8142 15.2915Z" fill="#665CAC"/>
</g>
<defs>
<clipPath id="clip0_222_1230">
<rect width="36" height="36" fill="white"/>
</clipPath>
</defs>
</svg>
