<svg width="33" height="32" viewBox="0 0 33 32" fill="none" xmlns="http://www.w3.org/2000/svg">
<path d="M31.4184 13.9999L22.9859 5.50989C20.7339 3.26231 17.6821 2 14.5003 2C11.3186 2 8.26678 3.26231 6.0147 5.50989L6.00345 5.52114L4.2822 7.29989C4.10389 7.49151 4.00783 7.7454 4.01462 8.00705C4.02141 8.26871 4.13051 8.51727 4.31851 8.69938C4.50652 8.88149 4.75842 8.98263 5.02016 8.98109C5.2819 8.97955 5.5326 8.87545 5.71845 8.69114L7.4347 6.91864C8.12518 6.2283 8.91314 5.64291 9.77345 5.18114L15.5859 10.9999L3.58595 22.9999C3.40018 23.1856 3.25282 23.4061 3.15228 23.6488C3.05175 23.8915 3 24.1516 3 24.4143C3 24.677 3.05175 24.9371 3.15228 25.1797C3.25282 25.4224 3.40018 25.6429 3.58595 25.8286L6.1722 28.4149C6.35792 28.6007 6.57842 28.748 6.8211 28.8486C7.06378 28.9491 7.32389 29.0008 7.58657 29.0008C7.84926 29.0008 8.10936 28.9491 8.35205 28.8486C8.59473 28.748 8.81522 28.6007 9.00095 28.4149L21.0009 16.4149L22.7934 18.2074L25.0009 20.4124C25.1867 20.5982 25.4072 20.7455 25.6499 20.8461C25.8925 20.9466 26.1526 20.9983 26.4153 20.9983C26.678 20.9983 26.9381 20.9466 27.1808 20.8461C27.4235 20.7455 27.644 20.5982 27.8297 20.4124L31.4159 16.8261C31.7907 16.4515 32.0014 15.9434 32.0019 15.4135C32.0024 14.8836 31.7925 14.3752 31.4184 13.9999ZM7.58595 26.9999L5.00095 24.4136L13.5009 15.9136L16.0859 18.4999L7.58595 26.9999ZM20.2934 14.2899L17.5009 17.0836L14.9147 14.4999L17.7084 11.7061C17.8014 11.6133 17.8752 11.503 17.9255 11.3816C17.9758 11.2602 18.0017 11.1301 18.0017 10.9986C18.0017 10.8672 17.9758 10.7371 17.9255 10.6157C17.8752 10.4943 17.8014 10.384 17.7084 10.2911L11.7909 4.37489C13.5006 3.89339 15.3077 3.87593 17.0263 4.32433C18.745 4.77272 20.3132 5.67077 21.5697 6.92614L27.0972 12.4899L23.5009 16.0824L21.7084 14.2899C21.6156 14.1969 21.5053 14.1232 21.3839 14.0728C21.2625 14.0225 21.1324 13.9966 21.0009 13.9966C20.8695 13.9966 20.7394 14.0225 20.618 14.0728C20.4966 14.1232 20.3863 14.1969 20.2934 14.2899ZM26.4184 18.9974L24.9184 17.4974L28.5009 13.9061L30.0009 15.4061L26.4184 18.9974Z" fill="currentColor"/>
</svg>
