<svg width="60" height="60" viewBox="0 0 60 60" fill="none" xmlns="http://www.w3.org/2000/svg">
<g clip-path="url(#clip0_160_610)">
<path d="M58 12H2C1.46957 12 0.960859 12.2107 0.585786 12.5858C0.210714 12.9609 0 13.4696 0 14L0 18C0 18.5304 0.210714 19.0391 0.585786 19.4142C0.960859 19.7893 1.46957 20 2 20H3V46C3 46.5304 3.21071 47.0391 3.58579 47.4142C3.96086 47.7893 4.46957 48 5 48H9C9.53043 48 10.0391 47.7893 10.4142 47.4142C10.7893 47.0391 11 46.5304 11 46V26H49V46C49 46.5304 49.2107 47.0391 49.5858 47.4142C49.9609 47.7893 50.4696 48 51 48H55C55.5304 48 56.0391 47.7893 56.4142 47.4142C56.7893 47.0391 57 46.5304 57 46V20H58C58.5304 20 59.0391 19.7893 59.4142 19.4142C59.7893 19.0391 60 18.5304 60 18V14C60 13.4696 59.7893 12.9609 59.4142 12.5858C59.0391 12.2107 58.5304 12 58 12ZM5 46V20H9V46H5ZM11 24V20H49V24H11ZM55 46H51V20H55V46ZM58 18H2V14H58V18Z" fill="#68231E"/>
</g>
<defs>
<clipPath id="clip0_160_610">
<rect width="60" height="60" fill="white"/>
</clipPath>
</defs>
</svg>
